<?xml version="1.0" encoding="utf-8"?>
<!-- Generator: Adobe Illustrator 28.0.0, SVG Export Plug-In . SVG Version: 6.00 Build 0)  -->
<svg version="1.1" id="Layer_1" xmlns="http://www.w3.org/2000/svg" xmlns:xlink="http://www.w3.org/1999/xlink" x="0px" y="0px"
	 viewBox="0 0 6734 1595" style="enable-background:new 0 0 6734 1595;" xml:space="preserve">
<style type="text/css">
	.st0{fill:#178890;}
	.st1{fill:#07212C;}
	.st2{fill:#07212C;stroke:#178890;stroke-width:9;stroke-miterlimit:10;}
	.st3{fill:#07212C;stroke:#178890;stroke-width:5;stroke-miterlimit:10;}
	.st4{fill:#07212C;stroke:#178890;stroke-width:6;stroke-miterlimit:10;}
	.st5{fill:#FFFFFF;}
	.st6{fill:#004D62;}
	.st7{stroke:#000000;stroke-width:9;stroke-miterlimit:10;}
	.st8{fill:#FFFFFF;stroke:#FFFFFF;stroke-width:9;stroke-miterlimit:10;}
	.st9{fill:#FFFFFF;stroke:#FFFFFF;stroke-width:6;stroke-miterlimit:10;}
	.st10{stroke:#000000;stroke-width:6;stroke-miterlimit:10;}
</style>
<g>
	<g>
		<g>
			<g>
				<path class="st5" d="M136.44,865.23l-0.11-2.93c4.63-0.14,8.28-3.68,8.14-7.89l-0.34-9.95
					c-6.48-184.37-13.8-393.35,126.7-537.88c1.49-1.52,2.23-3.49,2.1-5.51c-0.13-2.04-1.14-3.9-2.83-5.26
					c-1.53-1.23-3.52-1.91-5.57-1.91c-2.4,0-4.69,0.94-6.28,2.57C113.31,445.52,120.76,657.71,127.33,844.94l0.34,9.98
					c0.15,4.14,3.83,7.38,8.39,7.38L136.44,865.23z"/>
				<path class="st5" d="M656.26,1378.75c122.44,0,241.1-39.44,334.1-111.05c3.53-2.72,3.97-7.55,0.98-10.77
					c-2.89-3.13-8.44-3.53-11.85-0.89c-89.98,69.29-204.76,107.45-323.18,107.45c-58.78,0-116.52-9.3-171.6-27.65
					c-175.94-58.53-306.72-207.8-333.18-380.27c-0.79-5.26-1.52-10.52-2.13-15.77c-0.46-3.9-4.11-6.83-8.49-6.83
					c-2.98,0.24-4.99,1.24-6.4,2.83c-1.41,1.59-2.05,3.57-1.82,5.6c0.63,5.42,1.36,10.85,2.19,16.29
					c27.3,177.99,162.35,332.06,344.05,392.5C535.85,1369.13,595.51,1378.75,656.26,1378.75z"/>
				<path class="st5" d="M1186.55,732.17l-0.04-1.3c-0.87-26.17-1.76-53.22-1.95-79.68c-0.86-119.49-26.45-212.5-80.55-292.71
					c-96.42-142.94-267.89-231.73-447.5-231.73c-120.49,0-238.43,39.06-332.07,110.01c-1.72,1.31-2.79,3.15-2.99,5.19
					c-0.2,2.03,0.48,4.01,1.92,5.57c2.84,3.11,8.36,3.59,11.83,0.99c90.65-68.67,204.77-106.48,321.32-106.48
					c173.8,0,339.77,86,433.16,224.45c52.44,77.72,77.25,168.23,78.08,284.82c0.2,27.53,1.16,56.09,2.01,81.29
					c2.57,77.28,5.22,157.13-9.13,233.75c-15.9,84.99-56.32,164.81-116.9,230.82c-1.44,1.56-2.12,3.55-1.92,5.57
					c0.2,2.03,1.27,3.88,2.98,5.18c3.45,2.65,9.01,2.17,11.82-0.95c62.51-68.09,104.2-150.4,120.59-238.05
					C1191.82,890.78,1189.14,810.15,1186.55,732.17z"/>
				<path class="st5" d="M612.86,182.72c-6.72,0.58-12.74,1.24-18.73,2.02C421.97,206.96,272.71,319.5,213.89,471.45
					c-1.53,3.98,0.77,8.36,5.13,9.75c4.27,1.35,9.24-0.81,10.72-4.67C286.52,329.89,430.48,221.3,596.5,199.88
					c5.77-0.75,11.54-1.39,17.35-1.91c4.61-0.42,7.98-4.18,7.52-8.36C620.93,185.62,617.36,182.72,612.86,182.72z"/>
				<path class="st5" d="M200.5,550.27c-0.46-0.05-0.79-0.07-1.13-0.07c-4.17,0-7.6,3.01-7.99,7.01
					c-8.58,88.15-10.05,186.36-4.39,291.91l0.04,62.8c16.46,158.81,112.39,298.12,250.35,363.28c3.98,1.89,9.24,0.37,11.34-3.28
					c1.03-1.8,1.23-3.87,0.55-5.82c-0.67-1.95-2.14-3.54-4.13-4.48c-132.91-62.77-225.39-197.05-241.33-350.42l-0.02-62.45
					c-5.64-105.07-4.18-202.75,4.33-290.19C208.53,554.36,205.11,550.64,200.5,550.27z"/>
				<path class="st5" d="M1107.28,494.77c-54.18-169.73-217.76-295.16-407.04-312.1c0,0-0.01,0-0.02,0c-4.98,0-8.74,2.96-9.17,6.88
					c-0.22,2.02,0.44,4.01,1.87,5.59c1.43,1.58,3.43,2.56,5.67,2.76c182.5,16.32,340.25,137.35,392.55,301.15
					c22.94,71.84,21.81,149.8,20.71,225.19l-0.02,0.92c-0.34,24.22-0.69,49.27-0.22,73.48c1.67,85.5-0.47,184.19-47.54,273.51
					c-76.3,144.79-236.79,238.35-408.86,238.36c-10.03,0-20.16-0.33-30.15-0.97c-34.24-2.19-68.07-8.01-100.57-17.28
					c-0.82-0.23-1.68-0.35-2.54-0.35c-3.68,0-6.89,2.15-7.99,5.35c-0.68,1.95-0.47,4.02,0.57,5.83s2.79,3.15,4.94,3.75
					c33.66,9.61,68.79,15.65,104.41,17.94c10.55,0.68,21.07,1.01,31.26,1.01c178.56-0.02,345.04-96.98,424.11-247.01
					c48.64-92.33,50.89-193.15,49.18-280.41c-0.48-24.32-0.12-49.42,0.23-73.7C1129.77,647.93,1130.91,568.8,1107.28,494.77z"/>
				<path class="st5" d="M654.75,1270.82c127.87,0,250.61-56.03,328.32-149.88c1.35-1.62,1.93-3.62,1.62-5.65
					c-0.32-2.02-1.47-3.81-3.27-5.04c-3.63-2.5-9.07-1.74-11.75,1.51c-74.58,90.04-192.28,143.78-314.87,143.78
					c-48.44,0-95.71-8.23-140.51-24.45c-64.28-23.29-121.19-61.74-164.59-111.18c-1.62-1.84-4.01-2.9-6.58-2.9
					c-1.91,0-3.72,0.58-5.22,1.69c-1.77,1.28-2.88,3.1-3.13,5.13c-0.24,2.02,0.39,4.03,1.79,5.61
					c45.21,51.52,104.51,91.58,171.5,115.85C554.84,1262.23,604.19,1270.82,654.75,1270.82z"/>
				<path class="st5" d="M1014.54,1043.63c-0.91,1.87-0.97,3.95-0.15,5.86c0.82,1.9,2.39,3.4,4.43,4.22
					c4.13,1.65,9.27-0.16,11.09-3.91c16.15-33.29,31.07-66.4,36.27-105.28c10.94-138.23,9.33-259.08-5.08-380.15
					c-5.18-77.44-41.55-150.71-102.45-206.44c-1.59-1.45-3.71-2.24-5.95-2.24c-2.24,0-4.35,0.79-5.94,2.23
					c-3.28,2.97-3.29,7.82-0.02,10.8c58.01,53.07,92.68,123.01,97.63,196.95c14.31,120.33,15.93,240.29,5.09,377.36
					C1044.58,979.51,1030.16,1011.43,1014.54,1043.63z"/>
				<path class="st5" d="M283.77,454.9c-46.05,89.7-43.45,188.64-40.94,284.32l0.32,12.03c0.48,18.68,0.52,37.54,0.54,55.77
					c0.18,83.2,0.37,169.06,42.72,249.52c1.97,3.72,7.21,5.35,11.2,3.6c2.03-0.89,3.56-2.43,4.3-4.35c0.75-1.93,0.62-4-0.34-5.84
					c-40.72-77.38-40.89-157.77-41.06-242.88c-0.03-17.4-0.07-37.07-0.56-56.19l-0.32-12.02c-2.47-93.96-5.01-191.07,39.37-277.52
					c64.82-126.29,208.24-211.18,357-211.36v-0.01h0.56c77.92,0,156.3,22.41,220.78,63.1c3.72,2.34,9.14,1.41,11.7-1.92
					c1.28-1.68,1.76-3.71,1.36-5.72c-0.4-2-1.63-3.75-3.48-4.91c-67.26-42.45-149.05-65.83-230.32-65.83
					C501.16,234.74,351.38,323.21,283.77,454.9z"/>
				<path class="st5" d="M656.51,288.7c-195.69,0-354.89,148.74-354.89,331.57v266.06c0,182.82,159.2,331.55,354.89,331.55
					s354.89-148.74,354.89-331.55V620.27C1011.4,437.44,852.2,288.7,656.51,288.7z M994.6,886.33
					c0,174.39-151.66,316.27-338.09,316.27s-338.09-141.88-338.09-316.27V620.27c0-174.4,151.66-316.28,338.09-316.28
					S994.6,445.87,994.6,620.27V886.33z"/>
			</g>
			<g>
				<polygon class="st5" points="933.01,326.91 933.01,445.31 711.23,444.18 711.23,1122.43 655,1181.43 654.96,1181.43 
					598.99,1123.56 598.99,445.31 377.71,445.31 377.71,326.91 				"/>
				<polygon class="st5" points="832.96,694.22 832.96,505.93 814.82,505.93 814.82,701.84 932.7,819.18 932.7,986.01 
					655.02,1263.67 655.02,1201.82 729.88,1128.5 729.88,698.83 815.25,783.83 815.87,1009.18 834.08,1028.69 834.08,776.84 
					730.29,673.54 730.29,463.45 933.01,463.45 933.01,793.81 				"/>
				<polygon class="st5" points="580.13,1128.5 654.98,1201.82 654.98,1263.67 377.32,986.01 377.32,698.83 462.7,783.83 
					463.31,1009.18 481.51,1028.69 481.51,776.84 377.71,673.54 377.71,463.45 580.43,463.45 580.43,793.81 480.41,694.22 
					480.41,505.93 462.26,505.93 462.26,701.84 580.13,819.18 				"/>
			</g>
		</g>
	</g>
	<g>
		<g>
			<g>
				<rect x="1291.51" y="1068.39" class="st5" width="5353.49" height="11.37"/>
			</g>
			<g>
				<path class="st5" d="M5083.9,1239.75l-4.19,21.95h-11.19l20.82-108.96h17.56l20.82,108.96h-12.12l-4.2-21.95H5083.9z
					 M5085.45,1229.32h24.24l-12.28-62.89L5085.45,1229.32z"/>
				<path class="st5" d="M5234.77,1179.04v9.81h-11.5v-10.43c0-9.81-3.89-15.72-12.74-15.72c-8.7,0-12.74,5.91-12.74,15.72v57.6
					c0,9.81,4.04,15.72,12.74,15.72c8.86,0,12.74-5.91,12.74-15.72v-14.17h11.5v13.54c0,16.5-7.77,27.4-24.55,27.4
					c-16.63,0-24.4-10.9-24.4-27.4v-56.35c0-16.5,7.77-27.4,24.4-27.4C5227,1151.64,5234.77,1162.54,5234.77,1179.04z"/>
				<path class="st5" d="M5270.82,1239.75l-4.19,21.95h-11.19l20.82-108.96h17.56l20.82,108.96h-12.12l-4.2-21.95H5270.82z
					 M5272.37,1229.32h24.24l-12.28-62.89L5272.37,1229.32z"/>
				<path class="st5" d="M5336.86,1261.7v-108.96h12.12v97.91h31.08v11.05H5336.86z"/>
				<path class="st5" d="M5401.96,1261.7v-108.96h12.12v97.91h31.08v11.05H5401.96z"/>
				<path class="st5" d="M5460.38,1201.77h29.68v10.9h-29.68V1201.77z"/>
				<path class="st5" d="M5525.49,1239.75l-4.19,21.95h-11.19l20.82-108.96h17.56l20.82,108.96h-12.12l-4.2-21.95H5525.49z
					 M5527.04,1229.32h24.24l-12.28-62.89L5527.04,1229.32z"/>
				<path class="st5" d="M5589.51,1201.77h29.68v10.9h-29.68V1201.77z"/>
				<path class="st5" d="M5654.62,1261.7v-97.91h-20.04v-11.05h52.05v11.05h-20.04v97.91H5654.62z"/>
				<path class="st5" d="M5746.29,1200.99v10.9h-26.57v38.76h32.63v11.05h-44.75v-108.96h44.75v11.05h-32.63v37.2H5746.29z"/>
				<path class="st5" d="M5794.77,1214.38l-6.37,10.74v36.58h-12.12v-108.96h12.12v52.61l28.9-52.61h12.28l-27.5,49.66l28.44,59.31
					h-12.43L5794.77,1214.38z"/>
				<path class="st5" d="M5889.39,1261.7v-108.96h12.12v97.91h31.08v11.05H5889.39z"/>
				<path class="st5" d="M5954.5,1261.7v-108.96h12.12v97.91h31.08v11.05H5954.5z"/>
				<path class="st5" d="M6067.62,1179.04v9.81h-11.5v-10.43c0-9.81-3.89-15.72-12.74-15.72c-8.7,0-12.74,5.91-12.74,15.72v57.6
					c0,9.81,4.04,15.72,12.74,15.72c8.86,0,12.74-5.91,12.74-15.72v-14.17h11.5v13.54c0,16.5-7.77,27.4-24.55,27.4
					c-16.63,0-24.4-10.9-24.4-27.4v-56.35c0-16.5,7.77-27.4,24.4-27.4C6059.85,1151.64,6067.62,1162.54,6067.62,1179.04z"/>
				<path class="st5" d="M6176.23,1179.04v9.81h-11.5v-10.43c0-9.81-3.88-15.72-12.74-15.72c-8.7,0-12.74,5.91-12.74,15.72v57.6
					c0,9.81,4.04,15.72,12.74,15.72c8.86,0,12.74-5.91,12.74-15.72v-14.17h11.5v13.54c0,16.5-7.77,27.4-24.55,27.4
					c-16.63,0-24.4-10.9-24.4-27.4v-56.35c0-16.5,7.77-27.4,24.4-27.4C6168.46,1151.64,6176.23,1162.54,6176.23,1179.04z"/>
				<path class="st5" d="M6199.06,1179.04c0-16.66,8.24-27.4,24.86-27.4c16.78,0,25.02,10.74,25.02,27.4v56.35
					c0,16.5-8.24,27.4-25.02,27.4c-16.63,0-24.86-10.9-24.86-27.4V1179.04z M6211.03,1236.01c0,9.96,4.2,15.72,12.9,15.72
					c8.86,0,12.9-5.76,12.9-15.72v-57.6c0-9.81-4.04-15.72-12.9-15.72c-8.7,0-12.9,5.91-12.9,15.72V1236.01z"/>
				<path class="st5" d="M6313.27,1261.54h-11.65l-18.03-86.7v86.86h-10.57v-108.96h16.94l17.87,87.01l17.25-87.01h16.94v108.96
					h-11.5v-87.64L6313.27,1261.54z"/>
				<path class="st5" d="M6390.96,1152.73c17.09,0,24.4,10.12,24.4,26.62v13.08c0,17.28-8.08,26.31-25.33,26.31h-10.72v42.96h-12.12
					v-108.96H6390.96z M6390.03,1207.84c9.01,0,13.36-4.2,13.36-14.63v-14.48c0-9.96-3.57-14.94-12.43-14.94h-11.65v44.05H6390.03z"
					/>
				<path class="st5" d="M6447.83,1239.75l-4.19,21.95h-11.19l20.82-108.96h17.56l20.82,108.96h-12.12l-4.2-21.95H6447.83z
					 M6449.39,1229.32h24.24l-12.28-62.89L6449.39,1229.32z"/>
				<path class="st5" d="M6524.59,1261.7h-10.88v-108.96h15.38l25.17,78.76v-78.76h10.72v108.96h-12.58l-27.81-88.1V1261.7z"/>
				<path class="st5" d="M6609.43,1222.63l-23-69.89h12.59l16.94,53.55l17.09-53.55h11.5l-23.15,69.89v39.07h-11.96V1222.63z"/>
			</g>
		</g>
		<g>
			<path class="st9" d="M1392.7,555.27c65.28,0,98.84,39.05,98.84,107.39v13.42h-63.46v-17.7c0-30.5-12.2-42.1-33.55-42.1
				c-21.36,0-33.56,11.59-33.56,42.1c0,87.86,131.19,104.34,131.19,226.38c0,68.33-34.17,107.38-100.07,107.38
				c-65.9,0-100.07-39.05-100.07-107.38v-26.24h63.46v30.5c0,30.51,13.42,41.49,34.78,41.49c21.36,0,34.78-10.98,34.78-41.49
				c0-87.86-131.19-104.33-131.19-226.37C1293.84,594.32,1327.4,555.27,1392.7,555.27z"/>
			<path class="st9" d="M1647.71,740.16h92.14v61.01h-92.14v125.08h115.93v61.02h-183.05V560.16h183.05v61.01h-115.93V740.16z"/>
			<path class="st9" d="M2049.78,828.02v56.75c0,68.33-34.17,107.38-100.07,107.38c-65.9,0-100.07-39.05-100.07-107.38V662.66
				c0-68.34,34.17-107.39,100.07-107.39c65.9,0,100.07,39.05,100.07,107.39v41.49h-63.46v-45.77c0-30.5-13.42-42.1-34.78-42.1
				c-21.36,0-34.78,11.59-34.78,42.1v230.64c0,30.51,13.42,41.49,34.78,41.49c21.36,0,34.78-10.98,34.78-41.49v-61.01H2049.78z"/>
			<path class="st9" d="M2204.72,560.16v329.49c0,30.51,13.42,41.49,34.78,41.49c21.35,0,34.78-10.99,34.78-41.49V560.16h63.46
				v325.21c0,68.34-34.17,107.39-100.07,107.39s-100.07-39.05-100.07-107.39V560.16H2204.72z"/>
			<path class="st9" d="M2573.84,987.27c-3.66-10.98-6.1-17.7-6.1-52.47v-67.12c0-39.65-13.42-54.3-43.93-54.3h-23.19v173.9h-67.11
				V560.16h101.29c69.56,0,99.46,32.33,99.46,98.23v33.56c0,43.94-14.04,72.61-43.94,86.65c33.56,14.04,44.55,46.37,44.55,90.91
				v65.9c0,20.74,0.6,35.99,7.32,51.86H2573.84z M2500.61,621.17v131.19h26.24c25.02,0,40.27-10.98,40.27-45.15v-42.1
				c0-30.5-10.37-43.94-34.16-43.94H2500.61z"/>
			<path class="st9" d="M2795.9,740.16h92.14v61.01h-92.14v125.08h115.93v61.02h-183.05V560.16h183.05v61.01H2795.9V740.16z"/>
			<path class="st9" d="M3221.75,987.27V585.78h-87.25v-25.63h201.96v25.63h-86.64v401.48H3221.75z"/>
			<path class="st9" d="M3567.68,757.84v25.63h-116.55v178.17h140.34v25.63h-168.41V560.16h168.41v25.63h-140.34v172.06H3567.68z"/>
			<path class="st9" d="M3869.67,664.49v35.39h-26.84v-37.22c0-45.76-17.7-80.54-64.68-80.54c-46.98,0-64.68,34.79-64.68,80.54
				v222.11c0,45.76,17.7,79.93,64.68,79.93c46.98,0,64.68-34.17,64.68-79.93v-50.65h26.84v48.81c0,61.63-26.84,108-92.13,108
				c-65.29,0-92.14-46.37-92.14-108V664.49c0-61.62,26.84-107.99,92.14-107.99C3842.83,556.5,3869.67,602.87,3869.67,664.49z"/>
			<path class="st9" d="M3993.51,786.53v200.74h-28.06V560.16h28.06V760.9h133.02V560.16h28.68v427.11h-28.68V786.53H3993.51z"/>
			<path class="st9" d="M4578.61,663.27v9.15h-26.85v-10.98c0-45.15-17.08-79.33-63.45-79.33s-63.46,33.56-63.46,78.71
				c0,103.73,154.37,105.56,154.37,223.32c0,61.62-26.85,106.78-92.14,106.78c-65.28,0-92.13-45.15-92.13-106.78v-21.97h26.85v23.8
				c0,45.76,17.7,78.71,64.68,78.71c46.98,0,64.68-32.96,64.68-78.71c0-102.51-154.37-104.34-154.37-223.32
				c0-64.07,28.06-105.56,90.91-106.16C4552.37,556.5,4578.61,601.64,4578.61,663.27z"/>
			<path class="st9" d="M4672.54,664.49c0-62.24,28.68-107.99,93.35-107.99c65.9,0,94.57,45.76,94.57,107.99v218.44
				c0,62.24-28.67,108-94.57,108c-64.68,0-93.35-45.76-93.35-108V664.49z M4700.6,884.76c0,46.37,18.31,80.54,65.29,80.54
				c47.6,0,66.51-34.16,66.51-80.54V662.66c0-46.37-18.91-80.54-66.51-80.54c-46.98,0-65.29,34.17-65.29,80.54V884.76z"/>
			<path class="st9" d="M4956.85,987.27V560.16h28.06v401.48h134.24v25.63H4956.85z"/>
			<path class="st9" d="M5238.1,884.15c0,45.76,17.08,81.15,64.07,81.15c46.98,0,64.07-35.39,64.07-81.15v-324h26.23v322.77
				c0,61.02-25.62,108-90.91,108c-65.29,0-91.52-46.98-91.52-108V560.16h28.07V884.15z"/>
			<path class="st9" d="M5562.67,987.27V585.78h-86.64v-25.63h201.96v25.63h-87.25v401.48H5562.67z"/>
			<path class="st9" d="M5790.84,560.16v427.11h-28.07V560.16H5790.84z"/>
			<path class="st9" d="M5887.84,664.49c0-62.24,28.68-107.99,93.35-107.99c65.9,0,94.58,45.76,94.58,107.99v218.44
				c0,62.24-28.67,108-94.58,108c-64.67,0-93.35-45.76-93.35-108V664.49z M5915.91,884.76c0,46.37,18.3,80.54,65.28,80.54
				c47.6,0,66.51-34.16,66.51-80.54V662.66c0-46.37-18.91-80.54-66.51-80.54c-46.98,0-65.28,34.17-65.28,80.54V884.76z"/>
			<path class="st9" d="M6197.77,987.27h-25.63V560.16h36.61l128.13,360.6v-360.6h25.63v427.11h-31.12l-133.62-380.74V987.27z"/>
			<path class="st9" d="M6640.71,663.27v9.15h-26.85v-10.98c0-45.15-17.08-79.33-63.46-79.33c-46.37,0-63.45,33.56-63.45,78.71
				c0,103.73,154.37,105.56,154.37,223.32c0,61.62-26.85,106.78-92.14,106.78c-65.29,0-92.14-45.15-92.14-106.78v-21.97h26.84v23.8
				c0,45.76,17.7,78.71,64.68,78.71c46.98,0,64.68-32.96,64.68-78.71c0-102.51-154.37-104.34-154.37-223.32
				c0-64.07,28.07-105.56,90.92-106.16C6614.48,556.5,6640.71,601.64,6640.71,663.27z"/>
		</g>
	</g>
</g>
</svg>
