<?xml version="1.0" encoding="utf-8"?>
<!-- Generator: Adobe Illustrator 28.0.0, SVG Export Plug-In . SVG Version: 6.00 Build 0)  -->
<svg version="1.1" id="Layer_1" xmlns="http://www.w3.org/2000/svg" xmlns:xlink="http://www.w3.org/1999/xlink" x="0px" y="0px"
	 viewBox="0 0 4508 2000" style="enable-background:new 0 0 4508 2000;" xml:space="preserve">
<style type="text/css">
	.st0{fill:#178890;}
	.st1{fill:#07212C;}
	.st2{fill:#07212C;stroke:#178890;stroke-width:9;stroke-miterlimit:10;}
	.st3{fill:#07212C;stroke:#178890;stroke-width:5;stroke-miterlimit:10;}
	.st4{fill:#07212C;stroke:#178890;stroke-width:6;stroke-miterlimit:10;}
	.st5{fill:#FFFFFF;}
	.st6{fill:#004D62;}
	.st7{stroke:#000000;stroke-width:9;stroke-miterlimit:10;}
	.st8{fill:#FFFFFF;stroke:#FFFFFF;stroke-width:9;stroke-miterlimit:10;}
	.st9{fill:#FFFFFF;stroke:#FFFFFF;stroke-width:6;stroke-miterlimit:10;}
	.st10{stroke:#000000;stroke-width:6;stroke-miterlimit:10;}
</style>
<g>
	<g>
		<g>
			<g>
				<path class="st0" d="M252.66,1156.73l-0.15-4.09c6.47-0.19,11.56-5.13,11.37-11.02l-0.48-13.89
					c-9.04-257.34-19.27-549.02,176.84-750.76c2.08-2.13,3.12-4.87,2.93-7.69c-0.19-2.85-1.59-5.45-3.94-7.34
					c-2.14-1.71-4.91-2.67-7.77-2.67c-3.35,0-6.55,1.31-8.77,3.59c-202.3,208.07-191.9,504.23-182.74,765.55l0.48,13.93
					c0.21,5.78,5.35,10.3,11.72,10.3L252.66,1156.73z"/>
				<path class="st0" d="M978.2,1873.48c170.9,0,336.51-55.05,466.32-155.01c4.93-3.8,5.54-10.54,1.37-15.03
					c-4.03-4.37-11.78-4.92-16.53-1.25c-125.6,96.71-285.8,149.98-451.08,149.98c-82.05,0-162.63-12.98-239.51-38.6
					c-245.57-81.7-428.11-290.04-465.04-530.76c-1.11-7.35-2.12-14.68-2.97-22.01c-0.64-5.44-5.74-9.53-11.86-9.53
					c-4.15,0.34-6.97,1.73-8.94,3.95c-1.97,2.21-2.86,4.98-2.54,7.81c0.88,7.57,1.9,15.14,3.06,22.74
					c38.1,248.43,226.6,463.48,480.21,547.84C810.14,1860.07,893.41,1873.48,978.2,1873.48z"/>
				<path class="st0" d="M1718.36,971.01l-0.06-1.81c-1.21-36.52-2.45-74.28-2.72-111.21c-1.2-166.78-36.92-296.6-112.43-408.55
					C1468.57,249.93,1229.24,126,978.55,126c-168.18,0-332.79,54.52-463.5,153.54c-2.41,1.83-3.9,4.4-4.18,7.25
					c-0.28,2.84,0.66,5.6,2.68,7.78c3.96,4.34,11.67,5.02,16.51,1.38c126.53-95.85,285.81-148.62,448.49-148.62
					c242.59,0,474.24,120.04,604.59,313.28c73.19,108.48,107.82,234.81,108.98,397.54c0.28,38.43,1.62,78.29,2.8,113.46
					c3.58,107.87,7.28,219.31-12.74,326.26c-22.19,118.63-78.6,230.04-163.17,322.17c-2.01,2.18-2.95,4.95-2.68,7.78
					c0.28,2.84,1.77,5.41,4.17,7.23c4.82,3.7,12.58,3.03,16.5-1.33c87.25-95.04,145.43-209.93,168.31-332.26
					C1725.72,1192.39,1721.98,1079.86,1718.36,971.01z"/>
				<path class="st0" d="M917.63,204.12c-9.38,0.8-17.78,1.72-26.14,2.81c-240.31,31.02-448.62,188.1-530.73,400.18
					c-2.14,5.56,1.07,11.66,7.17,13.61c5.96,1.89,12.89-1.13,14.96-6.52c79.24-204.68,280.18-356.25,511.91-386.14
					c8.05-1.05,16.1-1.94,24.21-2.67c6.43-0.59,11.14-5.83,10.49-11.67C928.89,208.16,923.9,204.12,917.63,204.12z"/>
				<path class="st0" d="M342.07,717.13c-0.64-0.07-1.11-0.1-1.57-0.1c-5.82,0-10.61,4.2-11.16,9.78
					c-11.97,123.03-14.03,260.11-6.13,407.43l0.06,87.66c22.98,221.67,156.87,416.1,349.43,507.05c5.55,2.63,12.9,0.52,15.82-4.57
					c1.44-2.52,1.72-5.4,0.77-8.12c-0.94-2.72-2.99-4.94-5.77-6.26c-185.52-87.61-314.59-275.03-336.84-489.11l-0.02-87.17
					c-7.87-146.65-5.83-282.99,6.05-405.03C353.27,722.83,348.5,717.64,342.07,717.13z"/>
				<path class="st0" d="M1607.71,639.66c-75.63-236.9-303.94-411.97-568.13-435.61c0,0-0.01,0-0.02,0c-6.96,0-12.2,4.13-12.8,9.6
					c-0.31,2.83,0.62,5.6,2.61,7.8c1.99,2.21,4.79,3.58,7.91,3.85C1292,248.08,1512.19,417,1585.19,645.63
					c32.02,100.27,30.44,209.08,28.91,314.31l-0.02,1.28c-0.48,33.81-0.97,68.78-0.3,102.56c2.34,119.33-0.66,257.08-66.35,381.75
					c-106.49,202.1-330.5,332.68-570.67,332.69c-14,0-28.14-0.47-42.08-1.35c-47.78-3.06-95.01-11.17-140.37-24.12
					c-1.14-0.33-2.35-0.49-3.55-0.49c-5.13,0-9.62,3.01-11.16,7.47c-0.94,2.72-0.66,5.61,0.79,8.14s3.9,4.39,6.89,5.24
					c46.98,13.42,96.01,21.84,145.74,25.04c14.73,0.94,29.41,1.41,43.63,1.41c249.23-0.02,481.59-135.36,591.95-344.77
					c67.89-128.88,71.03-269.59,68.65-391.38c-0.66-33.95-0.16-68.98,0.32-102.86C1639.1,853.43,1640.7,742.99,1607.71,639.66z"/>
				<path class="st0" d="M976.1,1722.84c178.48,0,349.79-78.21,458.26-209.2c1.88-2.26,2.69-5.06,2.26-7.88
					c-0.44-2.83-2.06-5.32-4.56-7.04c-5.07-3.48-12.66-2.43-16.41,2.11c-104.1,125.67-268.38,200.68-439.48,200.68
					c-67.61,0-133.59-11.48-196.12-34.13c-89.71-32.51-169.15-86.17-229.73-155.18c-2.26-2.56-5.59-4.04-9.18-4.04
					c-2.67,0-5.19,0.81-7.28,2.36c-2.47,1.79-4.02,4.33-4.36,7.17c-0.34,2.83,0.55,5.62,2.5,7.83
					c63.11,71.91,145.88,127.82,239.37,161.7C836.64,1710.85,905.52,1722.84,976.1,1722.84z"/>
				<path class="st0" d="M1478.28,1405.74c-1.27,2.61-1.35,5.51-0.21,8.18c1.14,2.66,3.34,4.74,6.19,5.88
					c5.77,2.31,12.94-0.22,15.49-5.45c22.54-46.47,43.36-92.68,50.62-146.94c15.28-192.94,13.03-361.61-7.09-530.59
					c-7.22-108.09-58-210.35-142.99-288.13c-2.22-2.02-5.18-3.13-8.31-3.13c-3.13,0-6.07,1.1-8.3,3.11
					c-4.58,4.15-4.59,10.92-0.03,15.08c80.97,74.07,129.36,171.69,136.27,274.9c19.98,167.96,22.23,335.39,7.1,526.71
					C1520.21,1316.24,1500.08,1360.8,1478.28,1405.74z"/>
				<path class="st0" d="M458.29,584.02c-64.27,125.19-60.65,263.3-57.15,396.85l0.44,16.79c0.66,26.07,0.72,52.4,0.76,77.85
					c0.25,116.13,0.52,235.97,59.63,348.28c2.74,5.2,10.06,7.47,15.64,5.03c2.84-1.24,4.97-3.39,6-6.07
					c1.05-2.69,0.87-5.58-0.48-8.15c-56.84-108-57.07-220.21-57.31-339c-0.05-24.29-0.09-51.74-0.78-78.43l-0.44-16.77
					c-3.45-131.15-6.99-266.68,54.95-387.35c90.47-176.28,290.66-294.76,498.28-295v-0.01h0.78c108.75,0,218.16,31.28,308.16,88.07
					c5.19,3.27,12.76,1.97,16.33-2.68c1.78-2.34,2.45-5.17,1.9-7.98c-0.56-2.79-2.28-5.23-4.85-6.85
					c-93.88-59.25-208.04-91.88-321.47-91.88C761.71,276.72,552.66,400.21,458.29,584.02z"/>
				<path class="st0" d="M978.55,352.04c-273.14,0-495.34,207.61-495.34,462.79v371.36c0,255.17,222.2,462.77,495.34,462.77
					s495.34-207.6,495.34-462.77V814.83C1473.89,559.65,1251.69,352.04,978.55,352.04z M1450.44,1186.18
					c0,243.41-211.68,441.44-471.89,441.44s-471.89-198.02-471.89-441.44V814.83c0-243.42,211.68-441.46,471.89-441.46
					s471.89,198.03,471.89,441.46V1186.18z"/>
			</g>
			<g>
				<polygon class="st1" points="1364.47,405.37 1364.47,570.63 1054.93,569.05 1054.93,1515.73 976.44,1598.08 976.39,1598.08 
					898.26,1517.31 898.26,570.63 589.42,570.63 589.42,405.37 				"/>
				<polygon class="st1" points="1224.84,918.05 1224.84,655.24 1199.51,655.24 1199.51,928.68 1364.05,1092.46 1364.05,1325.32 
					976.47,1712.87 976.47,1626.54 1080.95,1524.2 1080.95,924.48 1200.12,1043.12 1200.97,1357.65 1226.4,1384.89 1226.4,1033.37 
					1081.53,889.18 1081.53,595.95 1364.47,595.95 1364.47,1057.06 				"/>
				<polygon class="st1" points="871.94,1524.2 976.42,1626.54 976.42,1712.87 588.86,1325.32 588.86,924.48 708.03,1043.12 
					708.89,1357.65 734.28,1384.89 734.28,1033.37 589.42,889.18 589.42,595.95 872.36,595.95 872.36,1057.06 732.75,918.05 
					732.75,655.24 707.43,655.24 707.43,928.68 871.94,1092.46 				"/>
			</g>
		</g>
	</g>
	<g>
		<g>
			<g>
				<g>
					<path class="st2" d="M2212.46,363.85c88.48,0,133.96,52.9,133.96,145.48v18.19h-86v-23.97c0-41.33-16.54-57.04-45.48-57.04
						c-28.94,0-45.48,15.71-45.48,57.04c0,119.03,177.78,141.35,177.78,306.68c0,92.58-46.31,145.48-135.61,145.48
						c-89.31,0-135.61-52.9-135.61-145.48v-35.55h86v41.33c0,41.33,18.19,56.21,47.13,56.21c28.94,0,47.13-14.88,47.13-56.21
						c0-119.03-177.78-141.35-177.78-306.67C2078.5,416.75,2123.98,363.85,2212.46,363.85z"/>
					<path class="st2" d="M2558.1,614.31h124.86v82.66H2558.1v169.46h157.11v82.66h-248.07V370.46h248.07v82.66H2558.1V614.31z"/>
					<path class="st2" d="M3103.02,733.34v76.88c0,92.58-46.31,145.48-135.61,145.48c-89.31,0-135.61-52.9-135.61-145.48V509.33
						c0-92.58,46.31-145.48,135.61-145.48c89.3,0,135.61,52.9,135.61,145.48v56.21h-86v-62c0-41.33-18.19-57.04-47.13-57.04
						c-28.94,0-47.13,15.71-47.13,57.04v312.46c0,41.33,18.19,56.21,47.13,56.21c28.94,0,47.13-14.88,47.13-56.21v-82.66H3103.02z"
						/>
					<path class="st2" d="M3313.04,370.46v446.38c0,41.33,18.19,56.21,47.13,56.21c28.94,0,47.13-14.88,47.13-56.21V370.46h85.99
						v440.59c0,92.58-46.31,145.48-135.61,145.48c-89.3,0-135.61-52.9-135.61-145.48V370.46H3313.04z"/>
					<path class="st2" d="M3813.31,949.09c-4.96-14.88-8.27-23.97-8.27-71.09v-90.93c0-53.73-18.19-73.57-59.54-73.57h-31.42v235.58
						h-90.96V370.46h137.27c94.27,0,134.79,43.81,134.79,133.09v45.46c0,59.52-19.02,98.37-59.54,117.38
						c45.48,19.01,60.37,62.82,60.37,123.17v89.27c0,28.11,0.82,48.77,9.92,70.26H3813.31z M3714.08,453.12v177.73h35.56
						c33.9,0,54.58-14.88,54.58-61.17v-57.04c0-41.33-14.05-59.52-46.31-59.52H3714.08z"/>
					<path class="st2" d="M4114.3,614.31h124.86v82.66H4114.3v169.46h157.11v82.66h-248.07V370.46h248.07v82.66H4114.3V614.31z"/>
				</g>
				<g>
					<path class="st2" d="M2124.32,1332.42v-235.58h-48.3v-26.59h125.8v26.59h-48.3v235.58H2124.32z"/>
					<path class="st2" d="M2345.96,1186.36v26.22h-64.02v93.26h78.63v26.59h-107.83v-262.17h107.83v26.59h-78.63v89.51H2345.96z"/>
					<path class="st2" d="M2533.9,1133.55v23.6h-27.71v-25.09c0-23.6-9.36-37.83-30.7-37.83c-20.97,0-30.7,14.23-30.7,37.83v138.57
						c0,23.6,9.74,37.83,30.7,37.83c21.34,0,30.7-14.23,30.7-37.83v-34.08h27.71v32.58c0,39.7-18.72,65.92-59.16,65.92
						c-40.06,0-58.78-26.22-58.78-65.92v-135.58c0-39.7,18.72-65.92,58.78-65.92C2515.18,1067.63,2533.9,1093.85,2533.9,1133.55z"/>
					<path class="st2" d="M2620.38,1214.45v117.98h-29.2v-262.17h29.2v117.98h64.4v-117.98h29.2v262.17h-29.2v-117.98H2620.38z"/>
					<path class="st2" d="M2976.81,1133.18v7.12h-27.71v-8.61c0-23.6-8.99-37.45-29.95-37.45c-20.97,0-29.95,13.86-29.95,37.08
						c0,58.8,87.99,64.42,87.99,138.2c0,39.7-19.1,65.54-59.16,65.54s-58.78-25.84-58.78-65.54v-14.98h27.33V1271
						c0,23.6,9.73,37.45,30.7,37.45c20.97,0,30.7-13.86,30.7-37.45c0-58.43-87.61-64.04-87.61-137.83
						c0-40.45,18.72-65.54,58.03-65.54C2958.09,1067.63,2976.81,1093.48,2976.81,1133.18z"/>
					<path class="st2" d="M3031.09,1133.55c0-40.07,19.84-65.92,59.91-65.92c40.43,0,60.28,25.84,60.28,65.92v135.58
						c0,39.7-19.84,65.92-60.28,65.92c-40.06,0-59.91-26.22-59.91-65.92V1133.55z M3059.92,1270.63c0,23.97,10.11,37.83,31.08,37.83
						c21.34,0,31.07-13.86,31.07-37.83v-138.57c0-23.6-9.73-37.83-31.07-37.83c-20.97,0-31.08,14.23-31.08,37.83V1270.63z"/>
					<path class="st2" d="M3209.67,1332.42v-262.17h29.2v235.58h74.88v26.59H3209.67z"/>
					<path class="st2" d="M3394.25,1270.63c0,23.6,9.36,37.83,30.7,37.83c20.97,0,30.33-14.23,30.33-37.83v-200.37h27.33v198.87
						c0,39.7-18.34,66.29-58.78,66.29c-40.06,0-58.41-26.59-58.41-66.29v-198.87h28.83V1270.63z"/>
					<path class="st2" d="M3579.95,1332.42v-235.58h-48.3v-26.59h125.43v26.59h-48.3v235.58H3579.95z"/>
					<path class="st2" d="M3736.82,1070.26v262.17h-29.2v-262.17H3736.82z"/>
					<path class="st2" d="M3795.21,1133.55c0-40.07,19.84-65.92,59.91-65.92c40.43,0,60.28,25.84,60.28,65.92v135.58
						c0,39.7-19.84,65.92-60.28,65.92c-40.06,0-59.91-26.22-59.91-65.92V1133.55z M3824.04,1270.63c0,23.97,10.11,37.83,31.08,37.83
						c21.34,0,31.07-13.86,31.07-37.83v-138.57c0-23.6-9.73-37.83-31.07-37.83c-20.97,0-31.08,14.23-31.08,37.83V1270.63z"/>
					<path class="st2" d="M3999.63,1332.42h-26.21v-262.17h37.06l60.66,189.51v-189.51h25.83v262.17h-30.33l-67.02-211.98V1332.42z"
						/>
					<path class="st2" d="M4271.07,1133.18v7.12h-27.7v-8.61c0-23.6-8.99-37.45-29.95-37.45c-20.97,0-29.95,13.86-29.95,37.08
						c0,58.8,87.99,64.42,87.99,138.2c0,39.7-19.1,65.54-59.16,65.54c-40.06,0-58.78-25.84-58.78-65.54v-14.98h27.33V1271
						c0,23.6,9.74,37.45,30.7,37.45s30.7-13.86,30.7-37.45c0-58.43-87.61-64.04-87.61-137.83c0-40.45,18.72-65.54,58.04-65.54
						C4252.35,1067.63,4271.07,1093.48,4271.07,1133.18z"/>
				</g>
			</g>
			<rect x="2072.73" y="1440.31" class="st1" width="2199.06" height="15.87"/>
		</g>
		<g>
			<path class="st0" d="M2093.84,1679.48l-5.85,30.63h-15.62l29.06-152.09h24.51l29.06,152.09h-16.92l-5.86-30.63H2093.84z
				 M2096.01,1664.92h33.83l-17.13-87.77L2096.01,1664.92z"/>
			<path class="st0" d="M2304.43,1594.74v13.69h-16.05v-14.56c0-13.69-5.42-21.94-17.78-21.94c-12.15,0-17.78,8.26-17.78,21.94
				v80.39c0,13.69,5.64,21.94,17.78,21.94c12.36,0,17.78-8.26,17.78-21.94v-19.77h16.05v18.9c0,23.03-10.84,38.24-34.27,38.24
				c-23.21,0-34.05-15.21-34.05-38.24v-78.65c0-23.03,10.84-38.24,34.05-38.24C2293.58,1556.5,2304.43,1571.71,2304.43,1594.74z"/>
			<path class="st0" d="M2354.74,1679.48l-5.85,30.63h-15.62l29.06-152.09h24.51l29.06,152.09h-16.92l-5.86-30.63H2354.74z
				 M2356.91,1664.92h33.83l-17.13-87.77L2356.91,1664.92z"/>
			<path class="st0" d="M2446.91,1710.11v-152.09h16.92v136.66h43.38v15.43H2446.91z"/>
			<path class="st0" d="M2537.78,1710.11v-152.09h16.92v136.66h43.38v15.43H2537.78z"/>
			<path class="st0" d="M2619.33,1626.46h41.42v15.21h-41.42V1626.46z"/>
			<path class="st0" d="M2710.2,1679.48l-5.85,30.63h-15.62l29.06-152.09h24.51l29.06,152.09h-16.92l-5.86-30.63H2710.2z
				 M2712.37,1664.92h33.83l-17.13-87.77L2712.37,1664.92z"/>
			<path class="st0" d="M2799.56,1626.46h41.42v15.21h-41.42V1626.46z"/>
			<path class="st0" d="M2890.43,1710.11v-136.66h-27.98v-15.43h72.65v15.43h-27.98v136.66H2890.43z"/>
			<path class="st0" d="M3018.38,1625.38v15.21h-37.09v54.1h45.54v15.43h-62.46v-152.09h62.46v15.43h-45.54v51.93H3018.38z"/>
			<path class="st0" d="M3086.05,1644.06l-8.89,14.99v51.06h-16.92v-152.09h16.92v73.44l40.34-73.44h17.13l-38.39,69.31l39.69,82.78
				h-17.35L3086.05,1644.06z"/>
			<path class="st0" d="M3218.13,1710.11v-152.09h16.92v136.66h43.38v15.43H3218.13z"/>
			<path class="st0" d="M3309,1710.11v-152.09h16.92v136.66h43.38v15.43H3309z"/>
			<path class="st0" d="M3466.88,1594.74v13.69h-16.05v-14.56c0-13.69-5.42-21.94-17.78-21.94c-12.15,0-17.78,8.26-17.78,21.94
				v80.39c0,13.69,5.64,21.94,17.78,21.94c12.36,0,17.78-8.26,17.78-21.94v-19.77h16.05v18.9c0,23.03-10.84,38.24-34.27,38.24
				c-23.21,0-34.05-15.21-34.05-38.24v-78.65c0-23.03,10.84-38.24,34.05-38.24C3456.04,1556.5,3466.88,1571.71,3466.88,1594.74z"/>
			<path class="st0" d="M3618.48,1594.74v13.69h-16.05v-14.56c0-13.69-5.42-21.94-17.78-21.94c-12.15,0-17.78,8.26-17.78,21.94
				v80.39c0,13.69,5.64,21.94,17.78,21.94c12.36,0,17.78-8.26,17.78-21.94v-19.77h16.05v18.9c0,23.03-10.84,38.24-34.27,38.24
				c-23.21,0-34.05-15.21-34.05-38.24v-78.65c0-23.03,10.84-38.24,34.05-38.24C3607.63,1556.5,3618.48,1571.71,3618.48,1594.74z"/>
			<path class="st0" d="M3650.35,1594.74c0-23.25,11.5-38.24,34.7-38.24c23.42,0,34.92,14.99,34.92,38.24v78.65
				c0,23.03-11.49,38.24-34.92,38.24c-23.21,0-34.7-15.21-34.7-38.24V1594.74z M3667.05,1674.26c0,13.91,5.86,21.94,18,21.94
				c12.36,0,18-8.04,18-21.94v-80.39c0-13.69-5.64-21.94-18-21.94c-12.15,0-18,8.26-18,21.94V1674.26z"/>
			<path class="st0" d="M3809.76,1709.89h-16.26l-25.16-121.02v121.23h-14.75v-152.09h23.64l24.94,121.45l24.07-121.45h23.64v152.09
				h-16.05v-122.32L3809.76,1709.89z"/>
			<path class="st0" d="M3918.2,1558.02c23.86,0,34.05,14.12,34.05,37.15v18.25c0,24.12-11.28,36.72-35.35,36.72h-14.96v59.97
				h-16.92v-152.09H3918.2z M3916.89,1634.94c12.58,0,18.65-5.87,18.65-20.42v-20.21c0-13.91-4.99-20.86-17.35-20.86h-16.27v61.49
				H3916.89z"/>
			<path class="st0" d="M3997.57,1679.48l-5.85,30.63h-15.62l29.06-152.09h24.51l29.06,152.09h-16.92l-5.86-30.63H3997.57z
				 M3999.74,1664.92h33.83l-17.13-87.77L3999.74,1664.92z"/>
			<path class="st0" d="M4104.71,1710.11h-15.18v-152.09H4111l35.13,109.94v-109.94h14.96v152.09h-17.57l-38.82-122.97V1710.11z"/>
			<path class="st0" d="M4223.12,1655.58l-32.1-97.55h17.57l23.64,74.74l23.86-74.74h16.05l-32.32,97.55v54.53h-16.7V1655.58z"/>
		</g>
	</g>
</g>
</svg>
