<svg xmlns="http://www.w3.org/2000/svg" viewBox="0 0 204.51 29.38" width="300px" height="43.094px"><defs><style>.cls-1{fill:#fff;}</style></defs><g id="Layer_2" data-name="Layer 2"><path class="cls-1" d="M87.36,9.13a3,3,0,0,0-1.7-.42,3,3,0,0,0-1.72.42,3.61,3.61,0,0,0-1,1.49L77.6,23.23H67.54a6.19,6.19,0,0,1-.67,0,.68.68,0,0,1-.42-.18.78.78,0,0,1-.24-.65V18.41h10V15.89h-10v-3.4a2,2,0,0,1,0-.41.75.75,0,0,1,.23-.41.78.78,0,0,1,.42-.2,2.25,2.25,0,0,1,.44,0h9.1V8.91H35.92a7,7,0,0,0-1.37.16,3,3,0,0,0-1.4.78,2.91,2.91,0,0,0-.9,1.52A7.71,7.71,0,0,0,32.07,13c0,.24,0,.5,0,.77a4,4,0,0,0,.12.83,5,5,0,0,0,.26.83,2.61,2.61,0,0,0,.46.75,2.51,2.51,0,0,0,.55.53,5.16,5.16,0,0,0,.6.37,3.24,3.24,0,0,0,.52.24,1.76,1.76,0,0,0,.33.11l6.64,2.1a3.16,3.16,0,0,1,.88.39,2.24,2.24,0,0,1,.49.48,1.66,1.66,0,0,1,.22.52,3.14,3.14,0,0,1,0,.51c0,.14,0,.32,0,.53a1.83,1.83,0,0,1-.19.6,1.46,1.46,0,0,1-.47.49,1.6,1.6,0,0,1-.89.21H31.31v2.52H42.64a6.51,6.51,0,0,0,1.61-.19,2.59,2.59,0,0,0,1.4-1,3.41,3.41,0,0,0,.68-1.5,8.41,8.41,0,0,0,.16-1.63,6.54,6.54,0,0,0,0-.7,5.57,5.57,0,0,0-.14-.85A4,4,0,0,0,46,19a2.59,2.59,0,0,0-.6-.81,4,4,0,0,0-1-.65A11.26,11.26,0,0,0,43,17L36.81,15a2.24,2.24,0,0,1-1.29-.84,2.23,2.23,0,0,1-.27-1.06,4.34,4.34,0,0,1,.06-.63,1.1,1.1,0,0,1,.37-.67,1.24,1.24,0,0,1,.64-.33,4,4,0,0,1,.68-.06H52.06V25.75h3.18V11.43H63V23.25a6.22,6.22,0,0,0,.09,1,1.72,1.72,0,0,0,.53.95,1.47,1.47,0,0,0,.89.47,8.45,8.45,0,0,0,1,.06H79.88l1.71-4.26H89.7l1.74,4.26h3.34L88.43,10.62a3.46,3.46,0,0,0-1.07-1.49m-5,10.1,2.77-6.86c0-.13.11-.27.19-.44s.18-.26.29-.26.21.09.29.26.14.31.19.44l2.74,6.86Z"/><path class="cls-1" d="M115,9.24a3.37,3.37,0,0,0-2-.53,5.87,5.87,0,0,0-.86.07,2.25,2.25,0,0,0-.8.31,2.52,2.52,0,0,0-.71.65,4.61,4.61,0,0,0-.59,1.14l-4.35,11.24c-.09.18-.16.32-.23.44s-.15.18-.23.18-.16-.06-.23-.18a4.31,4.31,0,0,1-.23-.44l-4.36-11.24a7,7,0,0,0-.38-.83,2.9,2.9,0,0,0-.54-.7,2.26,2.26,0,0,0-.82-.47,3.86,3.86,0,0,0-1.22-.17c-.12,0-.34,0-.63,0A2.64,2.64,0,0,0,96,9a2.51,2.51,0,0,0-.81.66,1.92,1.92,0,0,0-.37,1.27V25.75H98l-.07-13.11s0-.13,0-.28.1-.23.23-.23.16.07.24.21a1.78,1.78,0,0,1,.17.34l4.31,11.24c.1.28.2.53.31.77a2.42,2.42,0,0,0,.44.64,1.88,1.88,0,0,0,.66.45,2.6,2.6,0,0,0,1,.17,2.86,2.86,0,0,0,.94-.14,1.71,1.71,0,0,0,.65-.39,2.5,2.5,0,0,0,.44-.64c.12-.25.25-.54.38-.86L112,12.68a2.67,2.67,0,0,1,.17-.34q.12-.21.24-.21a.3.3,0,0,1,.18.09c.08,0,.11.19.11.42l-.1,13.11h3.18V10.93A1.9,1.9,0,0,0,115,9.24"/><path class="cls-1" d="M143.15,19.69h2.17a4.22,4.22,0,0,0,1.25-.16,3,3,0,0,0,.9-.41,2.8,2.8,0,0,0,.62-.55,5.43,5.43,0,0,0,.41-.61,5.37,5.37,0,0,0,.61-1.92,17.69,17.69,0,0,0,.11-1.89,15,15,0,0,0-.12-1.87,4,4,0,0,0-.72-1.83,3.09,3.09,0,0,0-1.74-1.33,5.4,5.4,0,0,0-1-.18l-.91,0h-8a4.73,4.73,0,0,0-1,.12,2.12,2.12,0,0,0-1,.55,2,2,0,0,0-.6,1.07,7.44,7.44,0,0,0-.09,1.12V23.23H122.89a5.83,5.83,0,0,1-.66,0,.68.68,0,0,1-.43-.18.78.78,0,0,1-.24-.65V18.41h10V15.89h-10v-3.4a3.15,3.15,0,0,1,0-.41.75.75,0,0,1,.23-.41.82.82,0,0,1,.42-.2,2.28,2.28,0,0,1,.45,0h9.09V8.91H121a6.67,6.67,0,0,0-1,.09,1.69,1.69,0,0,0-1,.56,2.5,2.5,0,0,0-.42.78,3.17,3.17,0,0,0-.15,1V23.25a6.22,6.22,0,0,0,.09,1,1.72,1.72,0,0,0,.53.95,1.47,1.47,0,0,0,.89.47,8.45,8.45,0,0,0,1,.06h16.29V12.64a2.67,2.67,0,0,1,0-.5.7.7,0,0,1,.3-.44.75.75,0,0,1,.38-.23,3,3,0,0,1,.46,0h5.15a7.51,7.51,0,0,1,.89.06,1.44,1.44,0,0,1,.89.45,1.84,1.84,0,0,1,.44.79,5.5,5.5,0,0,1,.17,1.54c0,.15,0,.32,0,.53s0,.42,0,.64-.07.43-.12.64a1.83,1.83,0,0,1-.21.5,1.37,1.37,0,0,1-.83.63,3.85,3.85,0,0,1-.9.12h-3.18a1.51,1.51,0,0,0-1.06.33,1.05,1.05,0,0,0-.36.83v.38a1.38,1.38,0,0,0,.27.76,4.75,4.75,0,0,0,.52.66l5.54,5.46h4l-6.41-5.94Z"/><rect class="cls-1" x="151.72" y="8.9" width="3.18" height="16.85"/><path class="cls-1" d="M193.34,11.82a1.21,1.21,0,0,1,.63-.33,4.2,4.2,0,0,1,.69-.06h9.85V8.9H193.58a7,7,0,0,0-1.37.16,2.94,2.94,0,0,0-1.4.78,2.91,2.91,0,0,0-.9,1.52,7.71,7.71,0,0,0-.18,1.61c0,.24,0,.5,0,.77a5.93,5.93,0,0,0,.12.83,5,5,0,0,0,.27.83,3,3,0,0,0,1,1.28,4.44,4.44,0,0,0,.6.37,2.6,2.6,0,0,0,.52.24,2,2,0,0,0,.32.11l6.64,2.1a3,3,0,0,1,.88.39,2.31,2.31,0,0,1,.5.48,1.42,1.42,0,0,1,.21.52,3.14,3.14,0,0,1,.05.51,3.79,3.79,0,0,1,0,.53,1.45,1.45,0,0,1-.19.6,1.29,1.29,0,0,1-.47.49,1.58,1.58,0,0,1-.89.21H188.67l-5.3-12.61a3.38,3.38,0,0,0-1.07-1.49,3.69,3.69,0,0,0-3.42,0,3.51,3.51,0,0,0-1,1.49l-5.3,12.61h-6.76a9.86,9.86,0,0,1-2.63-.32,3,3,0,0,1-1.78-1.3,4.39,4.39,0,0,1-.26-.5,4.24,4.24,0,0,1-.27-.79,9.55,9.55,0,0,1-.19-1.17,15.42,15.42,0,0,1-.07-1.63,11.7,11.7,0,0,1,.28-2.92,5,5,0,0,1,.66-1.6,2.89,2.89,0,0,1,.83-.84,4.07,4.07,0,0,1,1-.49,5.27,5.27,0,0,1,1.22-.2c.43,0,.88,0,1.35,0h5.27V8.91h-6.77c-.3,0-.68,0-1.13,0a7.38,7.38,0,0,0-1.44.27,7.19,7.19,0,0,0-1.54.64,5.07,5.07,0,0,0-1.4,1.16,5.63,5.63,0,0,0-.85,1.39,8.17,8.17,0,0,0-.5,1.61,14.34,14.34,0,0,0-.22,1.76c0,.6-.06,1.2-.06,1.79s0,1,0,1.51a13.37,13.37,0,0,0,.22,1.62,7.92,7.92,0,0,0,.51,1.61,5.21,5.21,0,0,0,.93,1.47,5.42,5.42,0,0,0,1.27,1,6.71,6.71,0,0,0,1.39.6,7.25,7.25,0,0,0,1.41.26c.47,0,.9.06,1.3.06h10.45l1.71-4.26h8.11l1.73,4.26h13.91a6.65,6.65,0,0,0,1.62-.19,2.57,2.57,0,0,0,1.39-1,3.55,3.55,0,0,0,.69-1.5,9.24,9.24,0,0,0,.15-1.63c0-.19,0-.42,0-.7a5.64,5.64,0,0,0-.15-.85,4.54,4.54,0,0,0-.32-.89,2.94,2.94,0,0,0-.6-.81,4.07,4.07,0,0,0-1-.65,11.07,11.07,0,0,0-1.43-.55L194.47,15a2.2,2.2,0,0,1-1.29-.84,2.24,2.24,0,0,1-.28-1.06,4.34,4.34,0,0,1,.06-.63,1.12,1.12,0,0,1,.38-.67m-16,7.41,2.77-6.86a3.9,3.9,0,0,1,.2-.44c.08-.17.17-.26.28-.26s.21.09.29.26a3.65,3.65,0,0,1,.19.44l2.75,6.86Z"/><path class="cls-1" d="M14.07,5.55c10.14,14.08,3.29,22-2.12,22.5S.87,23.74,2.48,16.56s9.3-15.29,9.3-15.29L6.37,0C-4,14.11-1.44,30.5,12.29,29.32,27.93,28,20,6.34,20,6.34Z"/><path class="cls-1" d="M3.66,17c-.94,4.56,2.54,9.13,5.16,9.8a13.29,13.29,0,0,1-3.63-9C5.27,12.5,9.42,7,9.58,6.25c0,0-4.9,5.83-5.92,10.73"/><path class="cls-1" d="M18.12,20.59c1.13-6.2-3.49-11.83-4.84-13.86a21.85,21.85,0,0,1,.33,7.77c-.65,3.41-5.38,9.37-3,12.28a17.32,17.32,0,0,0,5.16-12.16,16.15,16.15,0,0,1-3.39,12.12,7.51,7.51,0,0,0,5.75-6.15"/></g></svg>